<svg version="1.2" xmlns="http://www.w3.org/2000/svg" viewBox="0 0 202 202" width="202" height="202"><style>.a{fill:#714853}</style><path fill-rule="evenodd" class="a" d="m79 41q-2.2-5.2-4.1-9.9h-5.1q-0.6 1.5-1.2 3.4-0.8 1.6-1.9 3.9-0.8 2.1-2.1 5-2.5 6.3-6.2 14.9-3.6 8.5-7.8 18.3-4.1 9.9-8.5 20.5-4.4 10.4-8.8 20.7-4.2 10.2-8.1 19.4-3.8 9.2-6.7 16.3-2.3 5.6-5.4 9-3 3.1-5.9 4.8-3.3 1.8-6.7 2.5v1q2.1-0.2 4.4-0.4 2.1-0.2 4.2-0.2 2.3-0.2 4.4-0.4h2.5q1.2-0.2 2.1-0.2h1.2q2.1 0 5 0.2 3 0.2 5.7 0.4 3.1 0.4 6.4 0.6v-1q-5-0.9-8.5-2.7-2.9-1.7-4.8-4.4-1.7-3 0.4-7.8l12.7-30.7 2.1-4.7 0.8-2 29.3-70.3z"/><path fill-rule="evenodd" class="a" d="m66.1 41q2.2-5.2 4.1-9.9h5q0.6 1.5 1.3 3.4 0.8 1.6 1.8 3.9 0.9 2.1 2.1 5 2.5 6.3 6.3 14.9 3.5 8.5 7.7 18.3 4.2 9.9 8.6 20.5 4.4 10.4 8.8 20.7 4.1 10.2 8.1 19.4 3.8 9.2 6.7 16.3 2.3 5.6 5.4 9 2.9 3.1 5.9 4.8 3.3 1.8 6.6 2.5v1q-2.1-0.2-4.3-0.4-2.1-0.2-4.2-0.2-2.3-0.2-4.4-0.4h-2.5q-1.3-0.2-2.1-0.2h-1.3q-2 0-5 0.2-2.9 0.2-5.6 0.4-3.1 0.4-6.5 0.6v-1q5-0.9 8.6-2.7 2.9-1.7 4.8-4.4 1.7-3-0.4-7.8l-12.8-30.7-2-4.7-0.9-2-29.2-70.3z"/><path class="a" d="m72.5 99.1l7 9.4h-13.9z"/><path class="a" d="m72.5 117.8l7-9.3h-13.9z"/><path class="a" d="m62.3 117.8l6.9 9.3h-13.9z"/><path class="a" d="m62.3 136.5l6.9-9.4h-13.9z"/><path class="a" d="m82.8 117.8l6.9 9.3h-13.8z"/><path class="a" d="m82.8 136.5l6.9-9.4h-13.8z"/><path fill-rule="evenodd" class="a" d="m79 41q-2.2-5.2-4.1-9.9h-5.1q-0.6 1.5-1.2 3.4-0.8 1.6-1.9 3.9-0.8 2.1-2.1 5-2.5 6.3-6.2 14.9-3.6 8.5-7.8 18.3-4.1 9.9-8.5 20.5-4.4 10.4-8.8 20.7-4.2 10.2-8.1 19.4-3.8 9.2-6.7 16.3-2.3 5.6-5.4 9-3 3.1-5.9 4.8-3.3 1.8-6.7 2.5v1q2.1-0.2 4.4-0.4 2.1-0.2 4.2-0.2 2.3-0.2 4.4-0.4h2.5q1.2-0.2 2.1-0.2h1.2q2.1 0 5 0.2 3 0.2 5.7 0.4 3.1 0.4 6.4 0.6v-1q-5-0.9-8.5-2.7-2.9-1.7-4.8-4.4-1.7-3 0.4-7.8l12.7-30.7 2.1-4.7 0.8-2 29.3-70.3z"/><path fill-rule="evenodd" class="a" d="m66.1 41q2.2-5.2 4.1-9.9h5q0.6 1.5 1.3 3.4 0.8 1.6 1.8 3.9 0.9 2.1 2.1 5 2.5 6.3 6.3 14.9 3.5 8.5 7.7 18.3 4.2 9.9 8.6 20.5 4.4 10.4 8.8 20.7 4.1 10.2 8.1 19.4 3.8 9.2 6.7 16.3 2.3 5.6 5.4 9 2.9 3.1 5.9 4.8 3.3 1.8 6.6 2.5v1q-2.1-0.2-4.3-0.4-2.1-0.2-4.2-0.2-2.3-0.2-4.4-0.4h-2.5q-1.3-0.2-2.1-0.2h-1.3q-2 0-5 0.2-2.9 0.2-5.6 0.4-3.1 0.4-6.5 0.6v-1q5-0.9 8.6-2.7 2.9-1.7 4.8-4.4 1.7-3-0.4-7.8l-12.8-30.7-2-4.7-0.9-2-29.2-70.3z"/><path class="a" d="m72.5 99.1l7 9.4h-13.9z"/><path class="a" d="m72.5 99.1l7 9.4h-13.9z"/><path class="a" d="m72.5 99.1l7 9.4h-13.9z"/><path class="a" d="m72.5 117.8l7-9.3h-13.9z"/><path class="a" d="m72.5 117.8l7-9.3h-13.9z"/><path class="a" d="m72.5 117.8l7-9.3h-13.9z"/><path class="a" d="m72.5 117.8l7-9.3h-13.9z"/><path class="a" d="m62.3 117.8l6.9 9.3h-13.9z"/><path class="a" d="m62.3 117.8l6.9 9.3h-13.9z"/><path class="a" d="m62.3 117.8l6.9 9.3h-13.9z"/><path class="a" d="m62.3 136.5l6.9-9.4h-13.9z"/><path class="a" d="m62.3 136.5l6.9-9.4h-13.9z"/><path class="a" d="m62.3 136.5l6.9-9.4h-13.9z"/><path class="a" d="m82.8 117.8l6.9 9.3h-13.8z"/><path class="a" d="m82.8 117.8l6.9 9.3h-13.8z"/><path class="a" d="m82.8 117.8l6.9 9.3h-13.8z"/><path class="a" d="m82.8 136.5l6.9-9.4h-13.8z"/><path class="a" d="m82.8 136.5l6.9-9.4h-13.8z"/><path class="a" d="m130.5 101l6.9-9.4h-13.8z"/><path class="a" d="m130.5 101l6.9-9.4h-13.8z"/><path class="a" d="m130.5 101l6.9-9.4h-13.8z"/><path class="a" d="m130.5 82.3l6.9 9.3h-13.8z"/><path class="a" d="m130.5 82.3l6.9 9.3h-13.8z"/><path class="a" d="m130.5 82.3l6.9 9.3h-13.8z"/><path class="a" d="m120.2 82.3l7-9.3h-13.9z"/><path class="a" d="m120.2 63.6l7 9.4h-13.9z"/><path class="a" d="m140.8 82.3l6.9-9.3h-13.9z"/><path class="a" d="m140.8 63.6l6.9 9.4h-13.9z"/><path fill-rule="evenodd" class="a" d="m143.6 143.7q-2.7 6.1-4.7 11.1l-5.4 10.9h-3.8l0.9-4.8 2.9-6.1 0.4-0.8 29-69.6 0.8-1.9 2.1-4.8 12.7-30.7q2.1-4.8 0.4-7.7-1.9-2.8-4.8-4.4-3.5-1.9-8.5-2.7v-1.1q3.3 0.2 6.4 0.6 2.7 0.3 5.7 0.5 2.9 0.2 5 0.2h1.2q0.9 0 2.1-0.2h2.5q2.1-0.2 4.4-0.5 2.1 0 4.2-0.2 2.3-0.2 4.4-0.4v1.1q-3.4 0.6-6.7 2.5-2.9 1.6-5.9 4.8-3.1 3.3-5.4 8.9-2.9 7.1-6.7 16.3-3.9 9.2-8.1 19.5-4.4 10.2-8.8 20.6-4.4 10.7-8.5 20.5-4.2 9.8-7.8 18.4z"/></svg>