<svg width="122" height="25" viewBox="0 0 122 25" fill="none" xmlns="http://www.w3.org/2000/svg">
<path d="M105.747 24.3215H117.568C118.261 24.3215 118.834 24.2379 119.288 24.0707C119.741 23.9036 120.1 23.7245 120.362 23.5334C120.673 23.2946 120.912 23.0319 121.079 22.7454H121.222L120.219 24.9304H103.097V24.5722L119.073 1.57526H107.037C106.344 1.57526 105.771 1.65884 105.318 1.82601C104.864 1.99317 104.506 2.17228 104.243 2.36332C103.933 2.60213 103.694 2.86481 103.527 3.15138H103.383L104.386 0.966309H121.724V1.32452L105.747 24.3215Z" fill="#C6A78C"/>
<path d="M70.832 23.3901C70.7842 23.9155 70.5573 24.3334 70.1514 24.6439C69.7454 24.9304 69.232 25.026 68.6111 24.9304C68.1334 24.8588 67.7275 24.6797 67.3932 24.3931C67.0588 24.0827 66.7723 23.7483 66.5335 23.3901C66.2947 23.008 66.0917 22.614 65.9245 22.208C65.7812 21.8021 65.6499 21.4439 65.5305 21.1334L64.7782 19.1991C64.3484 18.1484 63.9066 17.2767 63.4529 16.5842C62.9991 15.8678 62.5215 15.2946 62.02 14.8648C61.5185 14.4349 60.9812 14.1245 60.4081 13.9334C59.8588 13.7424 59.2499 13.623 58.5812 13.5752C58.3424 13.5752 58.1275 13.5752 57.9365 13.5752C57.7693 13.5514 57.6141 13.5394 57.4708 13.5394H54.4618V22.8886C54.4618 23.3901 54.5215 23.7722 54.6409 24.0349C54.7842 24.2737 54.9395 24.4528 55.1066 24.5722C55.2738 24.7155 55.4768 24.7871 55.7156 24.7871V24.9304C55.4051 24.9066 55.1066 24.8827 54.8201 24.8588C54.5812 24.8349 54.3305 24.823 54.0678 24.823C53.829 24.7991 53.638 24.7871 53.4947 24.7871C53.3514 24.7871 53.1484 24.7991 52.8857 24.823C52.6469 24.823 52.3962 24.8349 52.1335 24.8588C51.8469 24.8827 51.5365 24.9066 51.2021 24.9304V24.7871C51.441 24.7871 51.6559 24.7274 51.8469 24.608C51.9902 24.4886 52.1216 24.2976 52.241 24.0349C52.3842 23.7722 52.4559 23.4021 52.4559 22.9245V2.97227C52.4559 2.47078 52.3842 2.08869 52.241 1.82601C52.1216 1.56332 51.9902 1.37228 51.8469 1.25288C51.6559 1.13347 51.441 1.07377 51.2021 1.07377V0.966309C52.0857 0.966309 52.9215 0.966309 53.7096 0.966309C54.4021 0.990189 55.0947 1.00213 55.7872 1.00213C56.5036 1.00213 57.0768 1.00213 57.5066 1.00213C57.9365 1.00213 58.5096 1.00213 59.226 1.00213C59.9424 0.978249 60.6947 1.00213 61.4827 1.07377C62.2947 1.14541 63.1066 1.2887 63.9185 1.50362C64.7544 1.71855 65.5066 2.05287 66.1752 2.5066C66.8439 2.93645 67.3812 3.52153 67.7872 4.26182C68.217 5.00212 68.432 5.9454 68.432 7.09167C68.432 8.30957 68.2051 9.31256 67.7514 10.1006C67.2976 10.8887 66.7245 11.5334 66.032 12.0349C65.3394 12.5126 64.5633 12.8588 63.7036 13.0737C62.8439 13.2887 61.9962 13.432 61.1603 13.5036L61.4111 13.5394C62.1514 13.7543 62.7842 14.029 63.3096 14.3633C63.8588 14.6737 64.3245 15.02 64.7066 15.4021C65.0887 15.7603 65.3991 16.1185 65.6379 16.4767C65.8767 16.8349 66.0558 17.1454 66.1752 17.4081C66.2469 17.5275 66.2946 17.6469 66.3185 17.7663C66.3663 17.8857 66.4141 18.0051 66.4618 18.1245L66.7484 18.7334L68.3603 22.7812C68.4797 23.0439 68.5991 23.3185 68.7185 23.6051C68.8618 23.8677 69.0648 24.0588 69.3275 24.1782C69.4946 24.2737 69.6857 24.3095 69.9006 24.2857C70.1394 24.2379 70.3185 24.1424 70.4379 23.9991C70.5096 23.9274 70.5931 23.7961 70.6887 23.6051C70.6887 23.5812 70.6887 23.5692 70.6887 23.5692C70.7126 23.5454 70.7245 23.5215 70.7245 23.4976C70.7245 23.4737 70.7364 23.4498 70.7603 23.426L70.832 23.3901ZM57.1484 12.9663C57.4827 12.9663 57.9365 12.9782 58.5096 13.0021C59.1066 13.026 59.7514 13.014 60.4439 12.9663C61.1365 12.8946 61.829 12.7633 62.5215 12.5723C63.2141 12.3812 63.8469 12.0708 64.42 11.6409C64.9932 11.2111 65.4588 10.6379 65.817 9.92151C66.1752 9.20509 66.3544 8.29763 66.3544 7.19913C66.3544 6.14839 66.1872 5.28869 65.8529 4.62003C65.5185 3.95138 65.0767 3.41406 64.5275 3.00809C64.0021 2.57824 63.4051 2.2678 62.7364 2.07675C62.0678 1.86183 61.4111 1.73049 60.7663 1.68272C60.1215 1.61108 59.5126 1.57526 58.9394 1.57526C58.3902 1.57526 57.9484 1.57526 57.6141 1.57526H54.4618V12.9663H57.1484Z" fill="#C6A78C"/>
<path d="M45.247 1.10748C45.4352 1.08395 45.6234 1.07219 45.8117 1.07219C46.0234 1.04866 46.2234 1.02513 46.4117 1.0016C46.5999 1.0016 46.7999 0.989837 47.0116 0.966309V1.10748C46.6822 1.10748 46.3881 1.15454 46.1293 1.24866C45.894 1.3663 45.6823 1.54277 45.494 1.77805C45.3058 1.98981 45.2117 2.33098 45.2117 2.80156C45.2117 3.41331 45.2117 4.15447 45.2117 5.02503C45.2117 5.87207 45.2117 6.76617 45.2117 7.70732C45.2117 8.64848 45.1999 9.60139 45.1764 10.5661C45.1764 11.5308 45.1764 12.4249 45.1764 13.2484C45.1764 14.0719 45.1764 14.7895 45.1764 15.4013C45.1764 16.013 45.1764 16.4365 45.1764 16.6718C45.1764 17.7071 45.0587 18.7188 44.8235 19.707C44.5882 20.6952 44.1646 21.5776 43.5529 22.354C42.9411 23.1305 42.0823 23.754 40.9765 24.2246C39.8942 24.6951 38.4824 24.9304 36.7413 24.9304C34.906 24.9304 33.3767 24.6951 32.1532 24.2246C30.9532 23.754 30.0003 23.1305 29.2944 22.354C28.5886 21.5776 28.0944 20.6952 27.8121 19.707C27.5298 18.7188 27.3886 17.7071 27.3886 16.6718V2.94273C27.3886 2.44863 27.318 2.08393 27.1768 1.84864C27.0592 1.58982 26.9298 1.40159 26.7886 1.28395C26.6004 1.1663 26.3886 1.10748 26.1533 1.10748V0.966309C26.4827 0.989837 26.7886 1.01337 27.0709 1.03689C27.3298 1.06042 27.5768 1.08395 27.8121 1.10748C28.0709 1.10748 28.2709 1.10748 28.4121 1.10748C28.5533 1.10748 28.7415 1.10748 28.9768 1.10748C29.2356 1.08395 29.4827 1.06042 29.7179 1.03689C30.0003 1.01337 30.2944 0.989837 30.6003 0.966309V1.10748C30.365 1.10748 30.165 1.1663 30.0003 1.28395C29.8356 1.40159 29.6826 1.58982 29.5415 1.84864C29.4238 2.10746 29.365 2.48392 29.365 2.97802V16.6718C29.365 18.1306 29.5885 19.3423 30.0356 20.307C30.5062 21.2717 31.1061 22.0482 31.8355 22.6364C32.5649 23.2246 33.3649 23.6363 34.2355 23.8716C35.106 24.1069 35.9413 24.2246 36.7413 24.2246C37.5883 24.2246 38.4589 24.154 39.353 24.0128C40.2706 23.8481 41.0941 23.5069 41.8235 22.9893C42.5765 22.4481 43.1882 21.6835 43.6588 20.6952C44.1529 19.707 44.3999 18.3659 44.3999 16.6718V2.76626C44.3999 2.29569 44.3058 1.95452 44.1176 1.74276C43.9294 1.531 43.7176 1.3663 43.4823 1.24866C43.2235 1.15454 42.9176 1.10748 42.5647 1.10748V0.966309C42.7764 0.989837 43 1.01337 43.2353 1.03689C43.4235 1.03689 43.6117 1.04866 43.8 1.07219C44.0117 1.07219 44.2117 1.08395 44.3999 1.10748H45.247Z" fill="#C6A78C"/>
<path d="M21.1743 1.10959C20.84 1.10959 20.5296 1.16929 20.243 1.2887C20.0281 1.4081 19.8251 1.59914 19.634 1.86183C19.443 2.10063 19.3355 2.47078 19.3117 2.97227V22.9245C19.3117 23.1155 19.3236 23.2946 19.3475 23.4618C19.3952 23.6051 19.4908 23.7961 19.634 24.0349C19.7535 24.226 19.8967 24.3812 20.0639 24.5006C20.2549 24.5961 20.434 24.6678 20.6012 24.7155C20.7923 24.7633 20.9833 24.7872 21.1743 24.7872V24.9304C20.84 24.9066 20.5534 24.8946 20.3146 24.8946C20.0758 24.8707 19.837 24.8588 19.5982 24.8588C19.3833 24.8588 19.1564 24.8588 18.9176 24.8588C18.6788 24.8588 18.3923 24.8827 18.0579 24.9304L3.51469 4.08272V22.8886C3.51469 23.3901 3.61021 23.7722 3.80125 24.0349C3.9923 24.2737 4.20722 24.4528 4.44603 24.5722C4.70871 24.7155 5.00722 24.7872 5.34155 24.7872V24.9304C5.12662 24.9066 4.9117 24.8827 4.69677 24.8588C4.50573 24.8349 4.30274 24.823 4.08782 24.823C3.89677 24.7991 3.70573 24.7872 3.51469 24.7872H2.69081C2.49976 24.7872 2.29678 24.7991 2.08185 24.823C1.86693 24.823 1.66394 24.8349 1.4729 24.8588C1.25797 24.8827 1.04305 24.9066 0.828125 24.9304V24.7872C1.16245 24.7872 1.4729 24.7275 1.75947 24.608C1.99827 24.4886 2.2132 24.2976 2.40424 24.0349C2.59528 23.7722 2.69081 23.4021 2.69081 22.9245V2.97227C2.69081 2.59019 2.58334 2.22004 2.36842 1.86183C2.24902 1.6469 2.09379 1.49168 1.90275 1.39616C1.73559 1.30064 1.56842 1.22899 1.40126 1.18123C1.21021 1.13347 1.01917 1.10959 0.828125 1.10959V0.966309C1.37738 1.01407 1.91469 1.04989 2.44006 1.07377C2.96543 1.07377 3.50275 1.07377 4.052 1.07377L18.5236 21.814V3.00809C18.5236 2.5066 18.4281 2.12451 18.237 1.86183C18.046 1.59914 17.8311 1.4081 17.5923 1.2887C17.3296 1.16929 17.0191 1.10959 16.6609 1.10959V0.966309C16.8758 0.990189 17.1027 1.01407 17.3415 1.03795C17.5326 1.03795 17.7236 1.04989 17.9146 1.07377C18.1296 1.07377 18.3326 1.08571 18.5236 1.10959H19.3117C19.5027 1.08571 19.7057 1.07377 19.9206 1.07377C20.1355 1.04989 20.3385 1.03795 20.5296 1.03795C20.7445 1.01407 20.9594 0.990189 21.1743 0.966309V1.10959Z" fill="#C6A78C"/>
<path fill-rule="evenodd" clip-rule="evenodd" d="M86.5634 0.966309H87.3655H87.4231C87.4947 1.13347 87.5664 1.32452 87.638 1.53944C87.7335 1.73049 87.841 1.95735 87.9604 2.22004C88.0559 2.45884 88.1753 2.74541 88.3186 3.07974C88.6052 3.79615 88.9634 4.64391 89.3932 5.62301C89.7992 6.60212 90.241 7.65286 90.7186 8.77525C91.1962 9.89763 91.6858 11.0678 92.1872 12.2857C92.6887 13.4797 93.1902 14.6618 93.6917 15.8319C94.1693 17.0021 94.635 18.1125 95.0887 19.1633C95.5186 20.214 95.9007 21.1454 96.235 21.9573C96.4977 22.6021 96.8081 23.1155 97.1663 23.4976C97.5007 23.8558 97.835 24.1304 98.1693 24.3215C98.5514 24.5364 98.9335 24.6797 99.3156 24.7513V24.9304C99.0768 24.9066 98.826 24.8827 98.5634 24.8588C98.3245 24.8349 98.0857 24.823 97.8469 24.823C97.5843 24.7991 97.3335 24.7752 97.0947 24.7513H96.6648C96.5216 24.7275 96.4022 24.7155 96.3066 24.7155H96.0917C95.8529 24.7155 95.5663 24.7275 95.232 24.7513C94.8977 24.7752 94.5753 24.7991 94.2649 24.823C93.9067 24.8707 93.5365 24.9066 93.1544 24.9304V24.7513C93.7275 24.6558 94.2171 24.5006 94.6231 24.2857C94.9574 24.0946 95.232 23.8439 95.4469 23.5334C95.638 23.1991 95.6141 22.7573 95.3753 22.2081L93.1902 16.9424H93.1889L92.8364 16.1232L92.7187 15.8462L87.6775 3.7334L87.6789 3.72335L86.9646 3.31016L86.2501 3.72342L86.2514 3.73316L81.1749 15.9311L81.0932 16.1232L80.7407 16.9424H80.7386L78.5536 22.2081C78.3148 22.7573 78.2909 23.1991 78.4819 23.5334C78.6969 23.8439 78.9715 24.0946 79.3058 24.2857C79.7118 24.5006 80.2013 24.6558 80.7745 24.7513V24.9304C80.3924 24.9066 80.0222 24.8707 79.664 24.823C79.3536 24.7991 79.0312 24.7752 78.6969 24.7513C78.3625 24.7275 78.076 24.7155 77.8372 24.7155H77.6222C77.5267 24.7155 77.4073 24.7275 77.264 24.7513H76.8342C76.5954 24.7752 76.3446 24.7991 76.0819 24.823C75.8431 24.823 75.6043 24.8349 75.3655 24.8588C75.1028 24.8827 74.8521 24.9066 74.6133 24.9304V24.7513C74.9954 24.6797 75.3775 24.5364 75.7595 24.3215C76.0939 24.1304 76.4282 23.8558 76.7625 23.4976C77.1207 23.1155 77.4312 22.6021 77.6939 21.9573C78.0282 21.1454 78.4103 20.214 78.8401 19.1633C79.2939 18.1125 79.7595 17.0021 80.2372 15.8319C80.7386 14.6618 81.2401 13.4797 81.7416 12.2857C82.2431 11.0678 82.7327 9.89763 83.2103 8.77525C83.6879 7.65286 84.1297 6.60212 84.5356 5.62301C84.9655 4.64391 85.3237 3.79615 85.6103 3.07974C85.7536 2.74541 85.873 2.45884 85.9685 2.22004C86.0879 1.95735 86.1953 1.73049 86.2909 1.53944C86.3625 1.32452 86.4341 1.13347 86.5058 0.966309H86.5634Z" fill="#C6A78C"/>
<path d="M86.9645 12.6343L88.1525 14.2354H85.7766L86.9645 12.6343Z" fill="#C6A78C"/>
<path d="M86.9645 15.8364L88.1525 14.2353H85.7766L86.9645 15.8364Z" fill="#C6A78C"/>
<path d="M85.2058 15.8364L86.3937 17.4375H84.0178L85.2058 15.8364Z" fill="#C6A78C"/>
<path d="M85.2058 19.0386L86.3937 17.4375H84.0178L85.2058 19.0386Z" fill="#C6A78C"/>
<path d="M88.7263 15.8364L89.9142 17.4375H87.5383L88.7263 15.8364Z" fill="#C6A78C"/>
<path d="M88.7263 19.0386L89.9142 17.4375H87.5383L88.7263 19.0386Z" fill="#C6A78C"/>
</svg>
