<svg width="1280" height="256" viewBox="0 0 1280 256" fill="none" xmlns="http://www.w3.org/2000/svg">
<path d="M1110.85 248.244H1236.01C1243.34 248.244 1249.41 247.359 1254.21 245.589C1259.01 243.819 1262.81 241.923 1265.59 239.9C1268.87 237.372 1271.4 234.59 1273.17 231.556H1274.69L1264.07 254.691H1082.78V250.899L1251.93 7.41231H1124.5C1117.17 7.41231 1111.1 8.29725 1106.3 10.0671C1101.49 11.837 1097.7 13.7333 1094.92 15.7561C1091.63 18.2845 1089.1 21.0657 1087.33 24.0998H1085.82L1096.44 0.964844H1280V4.75746L1110.85 248.244Z" fill="#4B362D"/>
<path d="M741.179 238.383C740.674 243.945 738.272 248.37 733.973 251.657C729.675 254.691 724.239 255.703 717.665 254.691C712.608 253.933 708.31 252.036 704.77 249.002C701.23 245.715 698.196 242.176 695.668 238.383C693.14 234.338 690.99 230.166 689.221 225.867C687.703 221.569 686.313 217.776 685.049 214.489L677.084 194.009C672.533 182.884 667.855 173.656 663.051 166.323C658.247 158.738 653.191 152.67 647.881 148.119C642.571 143.567 636.882 140.281 630.814 138.258C624.999 136.235 618.551 134.971 611.472 134.465C608.943 134.465 606.668 134.465 604.645 134.465C602.875 134.212 601.232 134.086 599.715 134.086H567.857V233.073C567.857 238.383 568.489 242.428 569.753 245.21C571.27 247.738 572.913 249.634 574.683 250.899C576.453 252.416 578.602 253.174 581.131 253.174V254.691C577.844 254.438 574.683 254.186 571.649 253.933C569.121 253.68 566.466 253.553 563.685 253.553C561.156 253.301 559.134 253.174 557.617 253.174C556.1 253.174 553.95 253.301 551.169 253.553C548.641 253.553 545.986 253.68 543.205 253.933C540.171 254.186 536.884 254.438 533.344 254.691V253.174C535.872 253.174 538.148 252.542 540.17 251.278C541.688 250.014 543.078 247.991 544.342 245.21C545.859 242.428 546.618 238.509 546.618 233.453V22.2035C546.618 16.8939 545.859 12.8484 544.342 10.0671C543.078 7.28588 541.688 5.26315 540.17 3.99895C538.148 2.73474 535.872 2.10264 533.344 2.10264V0.964844C542.699 0.964844 551.548 0.964844 559.892 0.964844C567.225 1.21768 574.557 1.3441 581.889 1.3441C589.475 1.3441 595.543 1.3441 600.094 1.3441C604.645 1.3441 610.713 1.3441 618.298 1.3441C625.884 1.09126 633.848 1.34411 642.192 2.10264C650.789 2.86115 659.385 4.3782 667.982 6.65377C676.831 8.92934 684.796 12.4691 691.875 17.2731C698.955 21.8243 704.644 28.0189 708.942 35.857C713.493 43.6951 715.769 53.6823 715.769 65.8187C715.769 78.7136 713.367 89.3329 708.563 97.6767C703.759 106.02 697.691 112.847 690.358 118.157C683.026 123.214 674.809 126.88 665.706 129.155C656.604 131.431 647.628 132.948 638.779 133.707L641.433 134.086C649.272 136.361 655.972 139.269 661.534 142.809C667.35 146.096 672.28 149.762 676.326 153.808C680.371 157.6 683.658 161.393 686.186 165.185C688.715 168.978 690.611 172.265 691.875 175.046C692.634 176.31 693.14 177.575 693.392 178.839C693.898 180.103 694.404 181.367 694.909 182.631L697.944 189.079L715.01 231.936C716.275 234.717 717.539 237.624 718.803 240.659C720.32 243.44 722.469 245.463 725.25 246.727C727.02 247.738 729.043 248.117 731.319 247.865C733.847 247.359 735.743 246.347 737.008 244.83C737.766 244.072 738.651 242.681 739.662 240.659C739.662 240.406 739.662 240.279 739.662 240.279C739.915 240.026 740.042 239.774 740.042 239.521C740.042 239.268 740.168 239.015 740.421 238.762L741.179 238.383ZM596.301 128.018C599.841 128.018 604.645 128.144 610.713 128.397C617.034 128.65 623.861 128.523 631.193 128.018C638.526 127.259 645.858 125.869 653.191 123.846C660.523 121.823 667.223 118.536 673.292 113.985C679.36 109.434 684.29 103.366 688.083 95.7804C691.875 88.1951 693.772 78.5872 693.772 66.9565C693.772 55.8314 692.002 46.7291 688.462 39.6496C684.922 32.57 680.245 26.8811 674.429 22.5828C668.867 18.0316 662.546 14.7447 655.466 12.722C648.387 10.4464 641.434 9.05577 634.607 8.55008C627.78 7.79157 621.333 7.41231 615.264 7.41231C609.449 7.41231 604.771 7.41231 601.232 7.41231H567.857V128.018H596.301Z" fill="#4B362D"/>
<path d="M470.282 2.45955C472.275 2.21044 474.268 2.08588 476.261 2.08588C478.503 1.83675 480.62 1.58763 482.613 1.33852C484.606 1.33852 486.724 1.21396 488.966 0.964844V2.45955C485.478 2.45955 482.364 2.95779 479.624 3.95426C477.133 5.19985 474.891 7.06823 472.898 9.55941C470.905 11.8015 469.908 15.4137 469.908 20.396C469.908 26.8731 469.908 34.7203 469.908 43.9377C469.908 52.9059 469.908 62.3724 469.908 72.3371C469.908 82.3018 469.784 92.3911 469.535 102.605C469.535 112.819 469.535 122.285 469.535 131.004C469.535 139.723 469.535 147.322 469.535 153.799C469.535 160.276 469.535 164.76 469.535 167.251C469.535 178.212 468.289 188.924 465.798 199.387C463.307 209.85 458.823 219.192 452.346 227.413C445.869 235.634 436.776 242.235 425.067 247.218C413.608 252.2 398.661 254.691 380.226 254.691C360.795 254.691 344.602 252.2 331.648 247.218C318.943 242.235 308.854 235.634 301.38 227.413C293.907 219.192 288.675 209.85 285.686 199.387C282.696 188.924 281.202 178.212 281.202 167.251V21.8907C281.202 16.6593 280.454 12.7979 278.96 10.3067C277.714 7.56646 276.344 5.57352 274.849 4.32793C272.856 3.08235 270.614 2.45955 268.123 2.45955V0.964844C271.611 1.21396 274.849 1.46307 277.839 1.71219C280.579 1.96132 283.195 2.21044 285.686 2.45955C288.426 2.45955 290.544 2.45955 292.038 2.45955C293.533 2.45955 295.526 2.45955 298.017 2.45955C300.757 2.21044 303.373 1.96132 305.864 1.71219C308.854 1.46307 311.968 1.21396 315.206 0.964844V2.45955C312.715 2.45955 310.598 3.08235 308.854 4.32793C307.11 5.57352 305.491 7.56646 303.996 10.3067C302.75 13.0471 302.128 17.0329 302.128 22.2644V167.251C302.128 182.696 304.494 195.526 309.227 205.74C314.21 215.953 320.562 224.174 328.285 230.402C336.008 236.63 344.478 240.99 353.695 243.481C362.912 245.972 371.756 247.218 380.226 247.218C389.194 247.218 398.412 246.47 407.878 244.976C417.594 243.232 426.313 239.62 434.035 234.139C442.007 228.409 448.484 220.313 453.467 209.85C458.698 199.387 461.314 185.187 461.314 167.251V20.0224C461.314 15.04 460.317 11.4278 458.324 9.18573C456.331 6.94367 454.089 5.19985 451.598 3.95426C448.858 2.95779 445.619 2.45955 441.883 2.45955V0.964844C444.125 1.21396 446.491 1.46307 448.983 1.71219C450.975 1.71219 452.968 1.83675 454.961 2.08588C457.203 2.08588 459.321 2.21044 461.314 2.45955H470.282Z" fill="#4B362D"/>
<path d="M215.421 2.4819C211.882 2.4819 208.595 3.114 205.561 4.3782C203.285 5.64241 201.136 7.66514 199.113 10.4464C197.09 12.9748 195.953 16.8939 195.7 22.2035V233.453C195.7 235.475 195.826 237.372 196.079 239.142C196.585 240.659 197.596 242.681 199.113 245.21C200.377 247.232 201.894 248.876 203.664 250.14C205.687 251.151 207.583 251.91 209.353 252.416C211.376 252.921 213.399 253.174 215.421 253.174V254.691C211.882 254.438 208.848 254.312 206.319 254.312C203.791 254.059 201.262 253.933 198.734 253.933C196.458 253.933 194.056 253.933 191.528 253.933C189 253.933 185.965 254.186 182.426 254.691L28.4452 33.9607V233.073C28.4452 238.383 29.4565 242.428 31.4793 245.21C33.502 247.738 35.7776 249.634 38.306 250.899C41.0872 252.416 44.2477 253.174 47.7875 253.174V254.691C45.512 254.438 43.2364 254.186 40.9608 253.933C38.9381 253.68 36.7889 253.553 34.5134 253.553C32.4906 253.301 30.4679 253.174 28.4452 253.174H19.7221C17.6994 253.174 15.5502 253.301 13.2747 253.553C10.9991 253.553 8.84994 253.68 6.82721 253.933C4.55164 254.186 2.27606 254.438 0.000488281 254.691V253.174C3.54027 253.174 6.82721 252.542 9.86131 251.278C12.3897 250.014 14.6653 247.991 16.688 245.21C18.7108 242.428 19.7221 238.509 19.7221 233.453V22.2035C19.7221 18.1581 18.5843 14.239 16.3088 10.4464C15.0446 8.17081 13.4011 6.52735 11.3784 5.516C9.60847 4.50463 7.83857 3.7461 6.06868 3.24041C4.04595 2.73473 2.02322 2.4819 0.000488281 2.4819V0.964844C5.81584 1.47052 11.5048 1.84979 17.0673 2.10264C22.6298 2.10264 28.3187 2.10264 34.1341 2.10264L187.356 221.695V22.5828C187.356 17.2731 186.345 13.2277 184.322 10.4464C182.299 7.66514 180.024 5.64241 177.495 4.3782C174.714 3.114 171.427 2.4819 167.634 2.4819V0.964844C169.91 1.21768 172.312 1.47052 174.84 1.72336C176.863 1.72336 178.886 1.84979 180.909 2.10264C183.184 2.10264 185.333 2.22906 187.356 2.4819H195.7C197.723 2.22906 199.872 2.10264 202.147 2.10264C204.423 1.84979 206.572 1.72336 208.595 1.72336C210.87 1.47052 213.146 1.21768 215.421 0.964844V2.4819Z" fill="#4B362D"/>
<path fill-rule="evenodd" clip-rule="evenodd" d="M920.929 11.0337C921.918 13.5906 922.928 16.1985 923.981 18.857L923.907 18.8998C924.435 20.1832 924.97 21.4667 925.473 22.6405C928.507 30.2258 932.382 39.6225 936.933 49.989C939.664 56.5758 942.667 63.5594 945.79 70.8247L945.791 70.8266L945.791 70.8274C947.583 74.9956 949.415 79.2566 951.258 83.5885C953.217 88.19 955.244 92.8399 957.302 97.5596L957.304 97.5635L957.305 97.5663L957.306 97.5667C960.562 105.033 963.894 112.675 967.147 120.574C969.963 127.281 972.998 133.838 976.018 140.368L976.019 140.368L976.019 140.368L976.019 140.369L976.02 140.37C978.693 146.148 981.356 151.904 983.848 157.72C987.363 166.331 991.192 175.066 994.813 183.329L994.813 183.33C996.402 186.954 997.951 190.488 999.416 193.88C1001.87 199.88 1004.4 205.41 1006.76 210.58L1006.76 210.581C1008.78 214.997 1010.68 219.15 1012.31 223.11C1012.84 224.421 1013.38 225.785 1013.92 227.165L1013.92 227.169L1013.92 227.17C1016.19 232.973 1018.56 239.048 1021.56 242.571C1024.67 246.235 1024.73 246.268 1027.2 247.656L1027.2 247.657L1027.21 247.663C1027.52 247.833 1027.85 248.024 1028.24 248.244C1032.29 250.519 1036.33 252.036 1040.38 252.795V254.691C1037.85 254.438 1035.19 254.186 1032.41 253.933C1029.88 253.68 1027.35 253.553 1024.83 253.553C1022.04 253.301 1019.39 253.048 1016.86 252.795H1012.31C1010.79 252.542 1009.53 252.416 1008.52 252.416H1006.24C1003.71 252.416 1000.68 252.542 997.14 252.795C993.6 253.048 990.187 253.301 986.9 253.553C983.107 254.059 979.188 254.438 975.143 254.691V252.795C981.211 251.784 986.394 250.14 990.693 247.864C994.232 245.842 997.14 243.187 999.416 239.9C1001.44 236.36 1001.19 231.683 998.657 225.867L975.522 170.116H975.51L971.777 161.442L970.456 158.332L917.162 30.2792L917.178 30.1561L910.813 26.4741L904.448 30.1561L904.465 30.28L851.176 158.32L849.849 161.443L846.117 170.116H846.105L822.97 225.867C820.441 231.682 820.189 236.36 822.211 239.9C824.487 243.187 827.395 245.842 830.934 247.864C835.233 250.14 840.416 251.783 846.484 252.795V254.691C842.439 254.438 838.52 254.059 834.727 253.553C831.44 253.3 828.027 253.048 824.487 252.795C820.947 252.542 817.913 252.415 815.385 252.415H813.109C812.098 252.415 810.833 252.542 809.316 252.795H804.765C802.237 253.048 799.582 253.3 796.801 253.553C794.272 253.553 791.744 253.68 789.215 253.932C786.434 254.185 783.779 254.438 781.251 254.691V252.795C785.296 252.036 789.342 250.519 793.387 248.244C793.777 248.021 794.119 247.828 794.425 247.657L794.426 247.656C796.895 246.268 796.954 246.235 800.07 242.571C803.067 239.047 805.441 232.973 807.708 227.169L807.708 227.169L807.71 227.165C808.249 225.786 808.782 224.421 809.316 223.11C810.947 219.15 812.846 214.996 814.865 210.579L814.865 210.579C817.229 205.409 819.757 199.88 822.211 193.88C823.676 190.488 825.225 186.954 826.814 183.329L826.814 183.329L826.814 183.327C830.435 175.065 834.264 166.33 837.778 157.719C840.271 151.903 842.934 146.147 845.608 140.368L845.608 140.368L845.608 140.368C848.629 133.838 851.664 127.28 854.48 120.574C857.733 112.675 861.065 105.034 864.321 97.5668L864.321 97.5665L864.321 97.5661L864.323 97.5633L864.324 97.5594C866.383 92.8397 868.41 88.1898 870.368 83.5884C872.212 79.2563 874.044 74.9952 875.836 70.8269C878.96 63.5607 881.962 56.5763 884.694 49.9888C889.245 39.6223 893.12 30.2256 896.154 22.6404C896.819 21.0897 897.603 19.3481 898.36 17.6679C898.586 17.166 898.81 16.6695 899.027 16.1853C901.274 10.9064 903.385 5.83289 905.359 0.9648H906.611C906.728 0.955769 906.854 0.951172 906.991 0.951172H916.966C918.29 4.21763 919.591 7.57821 920.928 11.0317L920.928 11.032L920.929 11.0337Z" fill="#4B362D"/>
<path d="M911.994 124.498L924.572 141.45H899.416L911.994 124.498Z" fill="#4B362D"/>
<path d="M911.994 158.402L924.572 141.45H899.416L911.994 158.402Z" fill="#4B362D"/>
<path d="M893.375 158.402L905.954 175.354H880.797L893.375 158.402Z" fill="#4B362D"/>
<path d="M893.375 192.307L905.954 175.355H880.797L893.375 192.307Z" fill="#4B362D"/>
<path d="M930.635 158.402L943.213 175.354H918.057L930.635 158.402Z" fill="#4B362D"/>
<path d="M930.635 192.307L943.213 175.355H918.057L930.635 192.307Z" fill="#4B362D"/>
</svg>
