<svg width="202" height="140" viewBox="0 0 202 140" fill="none" xmlns="http://www.w3.org/2000/svg">
<path fill-rule="evenodd" clip-rule="evenodd" d="M79.0023 10.0338C77.5174 6.57228 76.1366 3.26692 74.8599 0.117676H69.8484C69.4308 1.09212 69.0132 2.20577 68.5956 3.45864C68.0388 4.57229 67.4123 5.89476 66.7163 7.42604C66.1595 8.81811 65.4634 10.4886 64.6282 12.4375C62.9577 16.6137 60.8696 21.5555 58.3639 27.263C55.9974 32.9705 53.4221 39.0956 50.6379 45.6383C47.8538 52.181 45 59.0022 42.0767 66.1017C39.1533 73.0621 36.23 79.9528 33.3067 86.774C30.5225 93.5951 27.808 100.068 25.1631 106.193C22.6573 112.318 20.43 117.747 18.4811 122.481C16.9498 126.239 15.1402 129.232 13.0521 131.459C11.1032 133.547 9.15424 135.148 7.20534 136.262C4.97803 137.515 2.75075 138.35 0.523438 138.768V139.812C1.91551 139.673 3.37717 139.533 4.90845 139.394C6.30052 139.255 7.69257 139.185 9.08464 139.185C10.6159 139.046 12.0776 138.907 13.4697 138.768H15.9754C16.8106 138.629 17.5067 138.559 18.0635 138.559H19.3164C20.7084 138.559 22.3789 138.629 24.3278 138.768C26.2767 138.907 28.156 139.046 29.9657 139.185C32.0538 139.464 34.2115 139.673 36.4388 139.812V138.768C33.0978 138.211 30.2441 137.306 27.8776 136.053C25.9287 134.94 24.3278 133.478 23.0749 131.668C21.9613 129.719 22.1005 127.144 23.4926 123.942L36.23 93.2471H36.2344L38.2887 88.4731L39.1351 86.4814L68.3666 16.2445L68.3594 16.1902L79.0023 10.0338Z" fill="#714853"/>
<path fill-rule="evenodd" clip-rule="evenodd" d="M66.0563 10.0338C67.5412 6.57228 68.922 3.26692 70.1987 0.117676H75.2101C75.6278 1.09212 76.0454 2.20577 76.463 3.45864C77.0198 4.57229 77.6462 5.89476 78.3423 7.42604C78.8991 8.81811 79.5952 10.4886 80.4304 12.4375C82.1009 16.6137 84.189 21.5555 86.6947 27.263C89.0612 32.9705 91.6365 39.0956 94.4207 45.6383C97.2048 52.181 100.059 59.0022 102.982 66.1017C105.905 73.0621 108.829 79.9528 111.752 86.774C114.536 93.5951 117.251 100.068 119.896 106.193C122.401 112.318 124.629 117.747 126.577 122.481C128.109 126.239 129.918 129.232 132.007 131.459C133.955 133.547 135.904 135.148 137.853 136.262C140.081 137.515 142.308 138.35 144.535 138.768V139.812C143.143 139.673 141.681 139.533 140.15 139.394C138.758 139.255 137.366 139.185 135.974 139.185C134.443 139.046 132.981 138.907 131.589 138.768H129.083C128.248 138.629 127.552 138.559 126.995 138.559H125.742C124.35 138.559 122.68 138.629 120.731 138.768C118.782 138.907 116.903 139.046 115.093 139.185C113.005 139.464 110.847 139.673 108.62 139.812V138.768C111.961 138.211 114.814 137.306 117.181 136.053C119.13 134.94 120.731 133.478 121.984 131.668C123.097 129.719 122.958 127.144 121.566 123.942L108.829 93.2471H108.824L106.77 88.4731L105.924 86.4814L76.6919 16.2445L76.6992 16.1902L66.0563 10.0338Z" fill="#714853"/>
<path d="M72.5277 68.1338L79.4528 77.467H65.6026L72.5277 68.1338Z" fill="#714853"/>
<path d="M72.5277 86.8018L79.4528 77.4686H65.6026L72.5277 86.8018Z" fill="#714853"/>
<path d="M62.2699 86.8018L69.195 96.1349H55.3448L62.2699 86.8018Z" fill="#714853"/>
<path d="M62.2699 105.469L69.195 96.1356H55.3448L62.2699 105.469Z" fill="#714853"/>
<path d="M82.7933 86.8018L89.7184 96.1349H75.8682L82.7933 86.8018Z" fill="#714853"/>
<path d="M82.7933 105.469L89.7184 96.1356H75.8682L82.7933 105.469Z" fill="#714853"/>
<path d="M130.504 69.9668L137.429 60.6336H123.579L130.504 69.9668Z" fill="#714853"/>
<path d="M130.504 51.2993L137.429 60.6325H123.579L130.504 51.2993Z" fill="#714853"/>
<path d="M120.246 51.2979L127.172 41.9647H113.321L120.246 51.2979Z" fill="#714853"/>
<path d="M120.246 32.6304L127.172 41.9636H113.321L120.246 32.6304Z" fill="#714853"/>
<path d="M140.77 51.2979L147.695 41.9647H133.845L140.77 51.2979Z" fill="#714853"/>
<path d="M140.77 32.6304L147.695 41.9636H133.845L140.77 32.6304Z" fill="#714853"/>
<path fill-rule="evenodd" clip-rule="evenodd" d="M143.636 112.666C141.833 116.773 140.246 120.484 138.876 123.798H138.867L138.867 123.798L133.537 134.655H129.723L130.56 129.911L133.537 123.798L133.905 123.033L162.866 53.4458L163.711 51.4563L165.766 46.6824H165.77L178.507 15.9873C179.899 12.7855 180.039 10.2102 178.925 8.26128C177.672 6.4516 176.071 4.98993 174.122 3.87627C171.756 2.62341 168.902 1.71855 165.561 1.16173V0.117676C167.789 0.256882 169.946 0.465698 172.034 0.74411C173.844 0.883316 175.723 1.02252 177.672 1.16173C179.621 1.30093 181.292 1.37053 182.684 1.37053H183.936C184.493 1.37053 185.189 1.30093 186.025 1.16173H188.53C189.922 1.02252 191.384 0.883316 192.915 0.74411C194.307 0.74411 195.699 0.674515 197.092 0.535309C198.623 0.396103 200.084 0.256882 201.477 0.117676V1.16173C199.249 1.57935 197.022 2.41458 194.795 3.66745C192.846 4.7811 190.897 6.38199 188.948 8.47009C186.86 10.6974 185.05 13.6904 183.519 17.4489C181.57 22.182 179.343 27.611 176.837 33.7361C174.192 39.8613 171.477 46.3344 168.693 53.1555C165.77 59.9766 162.847 66.8674 159.923 73.8277C157 80.9273 154.146 87.7484 151.362 94.2911C148.578 100.834 146.003 106.959 143.636 112.666Z" fill="#714853"/>
</svg>
